<?xml version="1.0" encoding="UTF-8"?>
<!DOCTYPE svg PUBLIC "-//W3C//DTD SVG 1.1//EN" "http://www.w3.org/Graphics/SVG/1.1/DTD/svg11.dtd">
<svg xmlns="http://www.w3.org/2000/svg" version="1.1" width="5617px" height="5461px" style="shape-rendering:geometricPrecision; text-rendering:geometricPrecision; image-rendering:optimizeQuality; fill-rule:evenodd; clip-rule:evenodd" xmlns:xlink="http://www.w3.org/1999/xlink">
<g><path style="opacity:0.996" fill="#fefffe" d="M 5616.5,573.5 C 5616.5,631.5 5616.5,689.5 5616.5,747.5C 5615.78,747.918 5615.28,748.584 5615,749.5C 5614.07,757.269 5612.74,764.936 5611,772.5C 5610.53,773.931 5609.7,775.097 5608.5,776C 5609.58,777.726 5609.74,779.559 5609,781.5C 5593.23,838.875 5576.23,896.542 5558,954.5C 5554.74,964.952 5552.08,975.619 5550,986.5C 5548.1,988.854 5546.77,991.52 5546,994.5C 5545.33,998.5 5544.67,1002.5 5544,1006.5C 5543.33,1007.17 5542.67,1007.83 5542,1008.5C 5536.17,1027.66 5530.83,1046.99 5526,1066.5C 5522.37,1072.92 5520.37,1079.92 5520,1087.5C 5519.33,1088.17 5518.67,1088.83 5518,1089.5C 5516.29,1099.12 5513.45,1108.29 5509.5,1117C 5509.96,1117.41 5510.29,1117.91 5510.5,1118.5C 5506.85,1128.92 5503.52,1139.42 5500.5,1150C 5500.83,1150.33 5501.17,1150.67 5501.5,1151C 5500.31,1153.12 5498.98,1155.12 5497.5,1157C 5498.02,1157.56 5498.36,1158.23 5498.5,1159C 5494.43,1169.75 5491.26,1181.25 5489,1193.5C 5486.64,1199.24 5484.47,1205.07 5482.5,1211C 5483.87,1213.24 5483.37,1215.07 5481,1216.5C 5480.67,1218.83 5480.33,1221.17 5480,1223.5C 5479.67,1223.17 5479.33,1222.83 5479,1222.5C 5478.43,1226.85 5477.76,1231.18 5477,1235.5C 5475.18,1237.92 5473.85,1240.58 5473,1243.5C 5468.43,1261.26 5463.77,1278.93 5459,1296.5C 5456.91,1299.04 5455.91,1302.04 5456,1305.5C 5455.67,1305.17 5455.33,1304.83 5455,1304.5C 5454.43,1308.85 5453.76,1313.18 5453,1317.5C 5450.91,1320.04 5449.91,1323.04 5450,1326.5C 5449.67,1326.17 5449.33,1325.83 5449,1325.5C 5448.24,1329.82 5447.57,1334.15 5447,1338.5C 5444.91,1341.04 5443.91,1344.04 5444,1347.5C 5443.67,1347.17 5443.33,1346.83 5443,1346.5C 5442.58,1350.87 5441.91,1355.21 5441,1359.5C 5439.05,1362.14 5438.05,1365.14 5438,1368.5C 5437.67,1368.17 5437.33,1367.83 5437,1367.5C 5436.83,1373.52 5435.5,1379.19 5433,1384.5C 5431.05,1390.35 5429.72,1396.35 5429,1402.5C 5425.73,1410.32 5423.06,1418.32 5421,1426.5C 5418.93,1433.01 5417.59,1439.68 5417,1446.5C 5416.67,1446.17 5416.33,1445.83 5416,1445.5C 5409.79,1469.64 5402.63,1493.64 5394.5,1517.5C 5393.59,1524.71 5391.59,1531.55 5388.5,1538C 5388.64,1539.23 5388.98,1540.39 5389.5,1541.5C 5389.15,1542.7 5388.65,1542.7 5388,1541.5C 5384.32,1552.22 5381.32,1563.22 5379,1574.5C 5376.43,1578.76 5375.1,1583.43 5375,1588.5C 5371.07,1597.35 5368.4,1606.69 5367,1616.5C 5365.53,1617.38 5364.7,1618.71 5364.5,1620.5C 5363.64,1625.57 5362.48,1630.57 5361,1635.5C 5358.95,1637.29 5358.45,1639.29 5359.5,1641.5C 5352.06,1666.79 5344.72,1691.79 5337.5,1716.5C 5336.95,1719.83 5336.45,1723.16 5336,1726.5C 5333.85,1729.43 5332.35,1732.77 5331.5,1736.5C 5327.1,1753.34 5322.6,1770.01 5318,1786.5C 5314.41,1792.94 5312.41,1799.94 5312,1807.5C 5309.39,1809.74 5308.89,1812.41 5310.5,1815.5C 5310.06,1816.51 5309.4,1816.51 5308.5,1815.5C 5307.35,1819.43 5306.51,1823.43 5306,1827.5C 5302.61,1838.19 5299.11,1848.85 5295.5,1859.5C 5294.95,1862.83 5294.45,1866.16 5294,1869.5C 5290.26,1875.49 5288.26,1882.15 5288,1889.5C 5287.33,1890.17 5286.67,1890.83 5286,1891.5C 5282.19,1904 5278.85,1916.67 5276,1929.5C 5272.93,1937.04 5270.26,1944.71 5268,1952.5C 5264.72,1965.81 5261.38,1979.14 5258,1992.5C 5254.46,1998.65 5252.46,2005.32 5252,2012.5C 5248.56,2022.09 5245.23,2031.76 5242,2041.5C 5237.19,2061.43 5231.86,2081.1 5226,2100.5C 5209,2156.15 5192.67,2212.81 5177,2270.5C 5173.35,2279.41 5170.02,2288.41 5167,2297.5C 5163.74,2308.63 5161.07,2319.96 5159,2331.5C 5155.29,2338.99 5152.96,2346.99 5152,2355.5C 5151.67,2355.17 5151.33,2354.83 5151,2354.5C 5149.49,2364.6 5146.83,2374.27 5143,2383.5C 5142.33,2387.5 5141.67,2391.5 5141,2395.5C 5139.28,2398.55 5137.78,2401.72 5136.5,2405C 5136.83,2405.33 5137.17,2405.67 5137.5,2406C 5136.08,2408.98 5135.25,2412.15 5135,2415.5C 5134.33,2416.17 5133.67,2416.83 5133,2417.5C 5131.41,2426.81 5128.58,2435.64 5124.5,2444C 5125.02,2444.56 5125.36,2445.23 5125.5,2446C 5123.96,2451.74 5121.63,2457.08 5118.5,2462C 5118.96,2462.41 5119.29,2462.91 5119.5,2463.5C 5117.93,2465.88 5117.1,2468.55 5117,2471.5C 5116.53,2472.93 5115.7,2474.1 5114.5,2475C 5114.96,2475.41 5115.29,2475.91 5115.5,2476.5C 5111.01,2490.65 5107.17,2505.31 5104,2520.5C 5100.58,2534.26 5096.42,2547.76 5091.5,2561C 5092.72,2563.45 5092.22,2565.61 5090,2567.5C 5080.03,2604.68 5069.7,2641.68 5059,2678.5C 5058.67,2678.17 5058.33,2677.83 5058,2677.5C 5057.33,2681.5 5056.67,2685.5 5056,2689.5C 5053.91,2692.04 5052.91,2695.04 5053,2698.5C 5052.67,2698.17 5052.33,2697.83 5052,2697.5C 5051.33,2702.2 5050.5,2706.87 5049.5,2711.5C 5048.91,2711.71 5048.41,2712.04 5048,2712.5C 5047.67,2714.83 5047.33,2717.17 5047,2719.5C 5046.67,2719.17 5046.33,2718.83 5046,2718.5C 5045.43,2722.85 5044.76,2727.18 5044,2731.5C 5041.91,2734.04 5040.91,2737.04 5041,2740.5C 5040.67,2740.17 5040.33,2739.83 5040,2739.5C 5039.43,2743.85 5038.76,2748.18 5038,2752.5C 5036.05,2755.14 5035.05,2758.14 5035,2761.5C 5034.67,2761.17 5034.33,2760.83 5034,2760.5C 5033.43,2764.85 5032.76,2769.18 5032,2773.5C 5031.33,2774.17 5030.67,2774.83 5030,2775.5C 5028.25,2785.34 5025.92,2794.68 5023,2803.5C 5022.67,2803.17 5022.33,2802.83 5022,2802.5C 5017.44,2820.2 5012.77,2837.87 5008,2855.5C 5004.5,2865.13 5001,2874.79 4997.5,2884.5C 4996.51,2891.15 4994.51,2897.49 4991.5,2903.5C 4987.4,2917.76 4983.4,2932.1 4979.5,2946.5C 4974.88,2967.42 4969.21,2988.25 4962.5,3009C 4963.42,3011.05 4962.92,3012.88 4961,3014.5C 4959.46,3023.91 4956.79,3032.91 4953,3041.5C 4952.33,3045.5 4951.67,3049.5 4951,3053.5C 4945.01,3070.72 4939.51,3088.06 4934.5,3105.5C 4933.79,3108.8 4933.46,3112.13 4933.5,3115.5C 4932.5,3115.5 4931.5,3115.5 4930.5,3115.5C 4929.13,3121.7 4927.97,3128.03 4927,3134.5C 4923.75,3140.32 4921.75,3146.65 4921,3153.5C 4919.18,3155.92 4917.85,3158.58 4917,3161.5C 4916.33,3165.5 4915.67,3169.5 4915,3173.5C 4911.41,3179.94 4909.41,3186.94 4909,3194.5C 4905.42,3200.92 4903.42,3207.92 4903,3215.5C 4899.41,3221.94 4897.41,3228.94 4897,3236.5C 4893.62,3242.65 4891.62,3249.32 4891,3256.5C 4889.3,3259.36 4887.97,3262.36 4887,3265.5C 4883.91,3275.99 4881.25,3286.66 4879,3297.5C 4877.35,3298.89 4876.85,3300.39 4877.5,3302C 4866.69,3336.68 4856.53,3371.52 4847,3406.5C 4846.33,3407.17 4845.67,3407.83 4845,3408.5C 4843.14,3417.42 4840.97,3426.09 4838.5,3434.5C 4819.16,3500.41 4799.33,3566.75 4779,3633.5C 4778.67,3633.17 4778.33,3632.83 4778,3632.5C 4775.62,3643.51 4772.29,3654.18 4768,3664.5C 4764.99,3672.17 4761.49,3679.67 4757.5,3687C 4757.65,3692.63 4755.65,3697.63 4751.5,3702C 4751.83,3702.33 4752.17,3702.67 4752.5,3703C 4750.93,3704.83 4750.09,3706.99 4750,3709.5C 4748.34,3711.56 4746.84,3713.73 4745.5,3716C 4745.96,3716.41 4746.29,3716.91 4746.5,3717.5C 4745.29,3720.35 4743.79,3723.01 4742,3725.5C 4738.07,3737.73 4734.74,3750.06 4732,3762.5C 4729.72,3767.53 4727.22,3772.36 4724.5,3777C 4724.83,3777.33 4725.17,3777.67 4725.5,3778C 4723.99,3779.51 4722.66,3781.17 4721.5,3783C 4721.83,3783.33 4722.17,3783.67 4722.5,3784C 4684.19,3862.59 4643.19,3940.59 4599.5,4018C 4491.08,4191.07 4360.75,4343.74 4208.5,4476C 4174.15,4503.68 4139.48,4531.01 4104.5,4558C 4062.84,4588.05 4020.51,4616.71 3977.5,4644C 3881.06,4705.23 3778.39,4756.89 3669.5,4799C 3668.83,4799.67 3668.17,4800.33 3667.5,4801C 3661.74,4801.3 3656.74,4803.3 3652.5,4807C 3646.52,4807.53 3641.19,4809.53 3636.5,4813C 3626.69,4815.99 3617.02,4819.32 3607.5,4823C 3606.83,4823.67 3606.17,4824.33 3605.5,4825C 3594.86,4828.62 3584.19,4832.29 3573.5,4836C 3573.83,4836.33 3574.17,4836.67 3574.5,4837C 3567.94,4839.08 3561.27,4840.74 3554.5,4842C 3554.83,4842.33 3555.17,4842.67 3555.5,4843C 3547.98,4844.95 3540.64,4847.29 3533.5,4850C 3520.74,4852.91 3508.07,4856.07 3495.5,4859.5C 3487.22,4862.93 3478.55,4865.1 3469.5,4866C 3469.83,4866.33 3470.17,4866.67 3470.5,4867C 3462.7,4869.62 3454.7,4871.28 3446.5,4872C 3446.83,4872.33 3447.17,4872.67 3447.5,4873C 3440.83,4875.21 3433.99,4876.71 3427,4877.5C 3424.9,4877.79 3423.06,4878.62 3421.5,4880C 3391.42,4885.95 3362.25,4892.78 3334,4900.5C 3329.83,4900.96 3325.66,4901.46 3321.5,4902C 3321.83,4902.33 3322.17,4902.67 3322.5,4903C 3317.07,4903.15 3311.91,4904.32 3307,4906.5C 3302.5,4907 3298,4907.5 3293.5,4908C 3293.83,4908.33 3294.17,4908.67 3294.5,4909C 3288.58,4909.12 3282.91,4910.28 3277.5,4912.5C 3272.5,4913 3267.5,4913.5 3262.5,4914C 3263.17,4914.33 3263.83,4914.67 3264.5,4915C 3259.83,4915.33 3255.17,4915.67 3250.5,4916C 3248.96,4916.29 3247.62,4916.96 3246.5,4918C 3215.18,4920.3 3183.18,4922.3 3150.5,4924C 3077.17,4924.9 3003.84,4925.56 2930.5,4926C 2930.83,4926.33 2931.17,4926.67 2931.5,4927C 2614.83,4927.46 2298.16,4928.46 1981.5,4930C 1461.83,4930.67 942.167,4930.67 422.5,4930C 335.505,4928.57 248.505,4927.57 161.5,4927C 161.833,4926.67 162.167,4926.33 162.5,4926C 153.833,4925.67 145.167,4925.33 136.5,4925C 130.225,4922.67 123.892,4920.34 117.5,4918C 96.4662,4907.28 76.2995,4892.44 57,4873.5C 50.639,4866.16 44.3057,4858.83 38,4851.5C 27.3741,4835.15 19.2074,4817.65 13.5,4799C 12.5599,4788.02 11.8932,4777.02 11.5,4766C 12.2778,4744.16 13.1112,4722.33 14,4700.5C 15.515,4697.82 16.015,4695.16 15.5,4692.5C 17.8382,4681.64 19.3382,4670.64 20,4659.5C 22.4654,4657.94 22.9654,4655.94 21.5,4653.5C 24.2164,4646.79 25.7164,4639.79 26,4632.5C 27.6016,4630.74 28.1016,4628.9 27.5,4627C 28.1466,4625.39 28.98,4623.89 30,4622.5C 32.8459,4608.62 36.1792,4594.95 40,4581.5C 50.3131,4546.72 61.1465,4512.06 72.5,4477.5C 71.5153,4475.9 71.3486,4474.24 72,4472.5C 72.3333,4472.83 72.6667,4473.17 73,4473.5C 79.9248,4447 87.4248,4421.17 95.5,4396C 94.1308,4393.76 94.6308,4391.93 97,4390.5C 102.942,4370.67 108.276,4350.67 113,4330.5C 113.414,4330.04 113.914,4329.71 114.5,4329.5C 116.653,4319.26 119.653,4309.26 123.5,4299.5C 124.047,4296.17 124.547,4292.84 125,4289.5C 128.372,4283.37 130.372,4276.71 131,4269.5C 134.692,4262.75 136.692,4255.42 137,4247.5C 140.746,4241.5 142.746,4234.83 143,4227.5C 144.818,4225.08 146.152,4222.42 147,4219.5C 147.667,4215.5 148.333,4211.5 149,4207.5C 152.588,4201.06 154.588,4194.06 155,4186.5C 155.667,4185.83 156.333,4185.17 157,4184.5C 158.959,4178.37 160.293,4172.04 161,4165.5C 161.667,4164.83 162.333,4164.17 163,4163.5C 164.959,4157.37 166.293,4151.04 167,4144.5C 170.38,4138.35 172.38,4131.68 173,4124.5C 173.635,4123.03 174.469,4121.7 175.5,4120.5C 174.712,4118.67 175.212,4117 177,4115.5C 177.853,4111.53 178.519,4107.53 179,4103.5C 179.966,4100.36 181.299,4097.36 183,4094.5C 183.853,4090.53 184.519,4086.53 185,4082.5C 185.966,4079.36 187.299,4076.36 189,4073.5C 192.333,4060.83 195.667,4048.17 199,4035.5C 200.471,4034.62 201.304,4033.29 201.5,4031.5C 205.05,4017.03 208.883,4002.7 213,3988.5C 213.333,3988.83 213.667,3989.17 214,3989.5C 223.916,3952.71 234.75,3915.88 246.5,3879C 246.043,3878.59 245.709,3878.09 245.5,3877.5C 248.569,3870.46 250.736,3863.12 252,3855.5C 253.687,3853.39 254.187,3851.23 253.5,3849C 255.789,3842.19 258.122,3835.35 260.5,3828.5C 259.814,3826.94 259.981,3825.27 261,3823.5C 261.333,3823.83 261.667,3824.17 262,3824.5C 262.487,3815.6 264.654,3807.27 268.5,3799.5C 268.945,3792.83 270.445,3786.5 273,3780.5C 273.333,3780.83 273.667,3781.17 274,3781.5C 274.707,3775.03 276.04,3768.69 278,3762.5C 280.4,3753.97 283.233,3745.63 286.5,3737.5C 289.928,3725.57 293.095,3713.57 296,3701.5C 296.667,3700.83 297.333,3700.17 298,3699.5C 299.133,3692.37 300.8,3685.37 303,3678.5C 303.333,3678.83 303.667,3679.17 304,3679.5C 304.921,3673.07 306.254,3666.74 308,3660.5C 310.537,3652.87 313.037,3645.21 315.5,3637.5C 322.19,3611.43 329.524,3585.43 337.5,3559.5C 338.047,3556.17 338.547,3552.84 339,3549.5C 339.667,3548.83 340.333,3548.17 341,3547.5C 343.073,3540.99 344.407,3534.32 345,3527.5C 346.817,3525.58 347.984,3523.25 348.5,3520.5C 352.074,3509.42 354.907,3498.09 357,3486.5C 358.016,3487.63 358.683,3487.3 359,3485.5C 361.865,3473 365.198,3460.66 369,3448.5C 371.046,3446.3 372.046,3443.63 372,3440.5C 372.333,3440.83 372.667,3441.17 373,3441.5C 373.76,3437.18 374.427,3432.85 375,3428.5C 377.012,3426.32 378.012,3423.65 378,3420.5C 378.333,3420.83 378.667,3421.17 379,3421.5C 381.98,3410.65 384.647,3399.65 387,3388.5C 390.342,3377.96 393.842,3367.46 397.5,3357C 410.767,3306.07 424.767,3255.57 439.5,3205.5C 456.053,3149.26 473.053,3092.59 490.5,3035.5C 491.047,3032.17 491.547,3028.84 492,3025.5C 495.579,3019.08 497.579,3012.08 498,3004.5C 501.609,2998 503.609,2991 504,2983.5C 504.414,2983.04 504.914,2982.71 505.5,2982.5C 507.946,2969.74 511.446,2957.4 516,2945.5C 519.38,2939.35 521.38,2932.68 522,2925.5C 525.17,2918.97 527.17,2911.97 528,2904.5C 531.404,2897.61 533.404,2890.28 534,2882.5C 537.409,2875.6 539.409,2868.27 540,2860.5C 540.667,2859.83 541.333,2859.17 542,2858.5C 543.842,2848.58 546.509,2838.92 550,2829.5C 550.667,2825.5 551.333,2821.5 552,2817.5C 553.701,2814.64 555.034,2811.64 556,2808.5C 558.2,2798.03 560.867,2787.7 564,2777.5C 565.976,2776.46 566.476,2775.12 565.5,2773.5C 568.124,2765.73 570.957,2758.06 574,2750.5C 574.524,2743.27 576.524,2736.61 580,2730.5C 583.465,2717.1 586.799,2703.77 590,2690.5C 592.444,2688.28 593.11,2685.61 592,2682.5C 592.333,2682.83 592.667,2683.17 593,2683.5C 593.272,2678.28 594.272,2673.28 596,2668.5C 596.5,2667.33 597.333,2666.5 598.5,2666C 597.409,2663.94 597.242,2661.77 598,2659.5C 598.333,2660.17 598.667,2660.83 599,2661.5C 604.982,2637.22 611.815,2613.22 619.5,2589.5C 619.167,2588.83 618.833,2588.17 618.5,2587.5C 622.426,2573.7 626.76,2560.86 631.5,2549C 630.978,2548.44 630.645,2547.77 630.5,2547C 632.51,2543.8 633.677,2540.3 634,2536.5C 634.333,2536.83 634.667,2537.17 635,2537.5C 635.453,2534.16 635.953,2530.83 636.5,2527.5C 638.809,2523.88 639.976,2519.88 640,2515.5C 640.333,2515.83 640.667,2516.17 641,2516.5C 641.221,2510.88 642.721,2505.71 645.5,2501C 645.167,2500.67 644.833,2500.33 644.5,2500C 651.115,2480.8 656.615,2461.3 661,2441.5C 673.835,2397.44 687.002,2353.94 700.5,2311C 699.483,2309.95 699.316,2308.78 700,2307.5C 700.333,2308.17 700.667,2308.83 701,2309.5C 702.066,2303.77 703.4,2298.1 705,2292.5C 705.5,2291.33 706.333,2290.5 707.5,2290C 705.299,2289.22 705.299,2288.06 707.5,2286.5C 708.314,2284.23 708.814,2281.9 709,2279.5C 709.333,2279.83 709.667,2280.17 710,2280.5C 710.481,2276.47 711.147,2272.47 712,2268.5C 712.667,2267.83 713.333,2267.17 714,2266.5C 715.861,2260.36 717.194,2254.02 718,2247.5C 718.667,2246.83 719.333,2246.17 720,2245.5C 721.782,2238.93 723.115,2232.26 724,2225.5C 726.093,2222.96 727.093,2219.96 727,2216.5C 727.333,2216.83 727.667,2217.17 728,2217.5C 728.573,2213.15 729.24,2208.82 730,2204.5C 730.667,2203.83 731.333,2203.17 732,2202.5C 735.191,2188.57 738.524,2174.57 742,2160.5C 742.667,2159.83 743.333,2159.17 744,2158.5C 745.27,2153.19 746.436,2147.86 747.5,2142.5C 750.84,2133.98 753.674,2125.31 756,2116.5C 756.687,2114.43 756.52,2112.43 755.5,2110.5C 755.938,2109.49 756.604,2109.49 757.5,2110.5C 762.649,2093.98 767.482,2077.31 772,2060.5C 772.667,2059.83 773.333,2059.17 774,2058.5C 777.812,2046 781.146,2033.33 784,2020.5C 787.788,2014.46 789.788,2007.79 790,2000.5C 790.667,1999.83 791.333,1999.17 792,1998.5C 802.274,1963.58 812.274,1928.58 822,1893.5C 824.567,1889.24 825.9,1884.57 826,1879.5C 829.826,1870.96 832.493,1861.96 834,1852.5C 835.212,1851.22 836.045,1849.72 836.5,1848C 847.079,1809.67 859.413,1771.17 873.5,1732.5C 903.426,1647.35 940.093,1565.35 983.5,1486.5C 1047.76,1366.42 1124.42,1254.09 1213.5,1149.5C 1226.59,1135.12 1239.25,1121.12 1251.5,1107.5C 1283.56,1071.1 1317.89,1036.44 1354.5,1003.5C 1354.28,1002.32 1354.61,1001.32 1355.5,1000.5C 1363.41,993.597 1371.07,986.597 1378.5,979.5C 1379.39,978.675 1379.72,977.675 1379.5,976.5C 1382.36,976.405 1384.69,975.238 1386.5,973C 1488.59,878.588 1599.59,797.255 1719.5,729C 1733.03,720.338 1747.36,712.338 1762.5,705C 1813.36,677.586 1866.02,652.586 1920.5,630C 1923.54,628.023 1926.54,626.19 1929.5,624.5C 1930.87,624.657 1932.21,624.49 1933.5,624C 1943.52,619.305 1953.52,614.638 1963.5,610C 1968.93,609.615 1973.6,607.615 1977.5,604C 1989.78,599.347 2002.11,594.847 2014.5,590.5C 2017.52,589.471 2020.18,587.971 2022.5,586C 2031.03,583.787 2039.37,581.12 2047.5,578C 2054.39,574.343 2061.72,571.677 2069.5,570C 2070.47,568.242 2071.64,567.742 2073,568.5C 2094.21,561.657 2115.71,555.99 2137.5,551.5C 2144.68,548.546 2152.18,546.546 2160,545.5C 2177.04,541.036 2193.88,536.203 2210.5,531C 2237.25,525.161 2263.92,519.161 2290.5,513C 2313.13,508.74 2335.8,504.74 2358.5,501C 2359.67,500.581 2360.67,499.915 2361.5,499C 2368.83,498.333 2376.17,497.667 2383.5,497C 2383.17,496.667 2382.83,496.333 2382.5,496C 2386.5,495.667 2390.5,495.333 2394.5,495C 2395.31,494.692 2395.97,494.192 2396.5,493.5C 2412.53,491.155 2429.2,488.822 2446.5,486.5C 2462.83,485.817 2479.16,485.317 2495.5,485C 3505.83,484.333 4516.17,484.333 5526.5,485C 5537.32,492.155 5547.66,498.988 5557.5,505.5C 5575.8,520.631 5592.3,537.631 5607,556.5C 5610.22,562.293 5613.39,567.959 5616.5,573.5 Z M 3948.5,1918.5 C 3974.64,1860.89 4000.48,1803.23 4026,1745.5C 4026.33,1745.83 4026.67,1746.17 4027,1746.5C 4028.27,1741.34 4029.94,1736.34 4032,1731.5C 4032.33,1731.83 4032.67,1732.17 4033,1732.5C 4040.89,1714.71 4048.73,1697.37 4056.5,1680.5C 4077.21,1635.41 4098.71,1590.74 4121,1546.5C 4121.94,1542.7 4123.11,1539.03 4124.5,1535.5C 4125.5,1535.5 4126.5,1535.5 4127.5,1535.5C 4127.38,1533.27 4127.71,1531.1 4128.5,1529C 4131.93,1522.77 4135.43,1516.6 4139,1510.5C 4139.49,1505.65 4141.49,1501.65 4145,1498.5C 4145.49,1493.65 4147.49,1489.65 4151,1486.5C 4151.37,1484.3 4151.87,1482.14 4152.5,1480C 4172.58,1441.62 4191.58,1403.62 4209.5,1366C 4223.79,1340.53 4236.96,1315.03 4249,1289.5C 4249.33,1289.83 4249.67,1290.17 4250,1290.5C 4254.37,1280.38 4259.03,1270.38 4264,1260.5C 4264.33,1260.83 4264.67,1261.17 4265,1261.5C 4268.63,1253.32 4272.46,1245.32 4276.5,1237.5C 4279.75,1234.59 4281.59,1230.92 4282,1226.5C 4282.33,1226.83 4282.67,1227.17 4283,1227.5C 4283.25,1225.34 4284.25,1223.67 4286,1222.5C 4289.44,1215.58 4292.61,1208.58 4295.5,1201.5C 4297.94,1201.65 4298.61,1200.81 4297.5,1199C 4298.87,1197.28 4299.87,1195.45 4300.5,1193.5C 4317.33,1162.63 4335,1133.3 4353.5,1105.5C 4355.98,1101.85 4358.98,1098.69 4362.5,1096C 4366.75,1094.75 4371.08,1093.92 4375.5,1093.5C 4391.68,1093.19 4407.68,1092.02 4423.5,1090C 4636.5,1086.71 4849.5,1086.71 5062.5,1090C 5072.91,1091.91 5083.41,1093.08 5094,1093.5C 5103.87,1094.93 5106.03,1099.1 5100.5,1106C 5100.64,1106.77 5100.98,1107.44 5101.5,1108C 5098.21,1114.18 5094.38,1120.02 5090,1125.5C 5035.81,1185.83 4985.31,1247.33 4938.5,1310C 4907.97,1347.86 4878.47,1386.69 4850,1426.5C 4740.39,1571.83 4634.06,1721.5 4531,1875.5C 4530.25,1876.13 4529.42,1876.63 4528.5,1877C 4528.83,1877.33 4529.17,1877.67 4529.5,1878C 4524.69,1883.29 4520.35,1888.96 4516.5,1895C 4516.83,1895.33 4517.17,1895.67 4517.5,1896C 4515.4,1898.56 4513.24,1901.06 4511,1903.5C 4510.19,1907.48 4508.02,1910.48 4504.5,1912.5C 4504.71,1913.09 4505.04,1913.59 4505.5,1914C 4503.4,1916.56 4501.24,1919.06 4499,1921.5C 4498.19,1925.48 4496.02,1928.48 4492.5,1930.5C 4492.71,1931.09 4493.04,1931.59 4493.5,1932C 4492.15,1932.77 4491.32,1933.94 4491,1935.5C 4490.67,1935.17 4490.33,1934.83 4490,1934.5C 4487.97,1937.56 4486.31,1940.9 4485,1944.5C 4449.29,1996.61 4413.79,2051.78 4378.5,2110C 4368.35,2126.16 4358.18,2142.32 4348,2158.5C 4346.55,2161.09 4345.39,2163.76 4344.5,2166.5C 4206.16,2166.99 4067.82,2166.16 3929.5,2164C 3925.69,2162.74 3921.69,2162.07 3917.5,2162C 3901.48,2161.75 3885.48,2161.09 3869.5,2160C 3868.42,2159.04 3867.25,2158.21 3866,2157.5C 3865.29,2154.46 3864.12,2151.63 3862.5,2149C 3862.72,2142.02 3862.72,2135.02 3862.5,2128C 3863.21,2126.75 3864.04,2125.58 3865,2124.5C 3865.37,2117.31 3866.7,2110.31 3869,2103.5C 3872.18,2095.74 3875.52,2088.07 3879,2080.5C 3879.33,2080.83 3879.67,2081.17 3880,2081.5C 3882.42,2077.54 3884.08,2073.21 3885,2068.5C 3885.33,2068.83 3885.67,2069.17 3886,2069.5C 3886.13,2067 3887.13,2065 3889,2063.5C 3891.24,2055.81 3894.07,2048.48 3897.5,2041.5C 3898.19,2039.45 3899.35,2037.78 3901,2036.5C 3904.29,2027.19 3907.62,2017.86 3911,2008.5C 3913.12,2007.78 3913.62,2006.61 3912.5,2005C 3914.84,1999.62 3917.18,1994.29 3919.5,1989C 3919.36,1988.23 3919.02,1987.56 3918.5,1987C 3929.03,1964.13 3939.03,1941.3 3948.5,1918.5 Z M 3327.5,1993.5 C 3416.22,2042.06 3490.38,2107.06 3550,2188.5C 3567.07,2213.41 3583.73,2239.74 3600,2267.5C 3622.29,2308.14 3640.95,2350.14 3656,2393.5C 3657.57,2396.32 3659.07,2399.16 3660.5,2402C 3660.04,2402.41 3659.71,2402.91 3659.5,2403.5C 3660.74,2407.25 3662.41,2410.75 3664.5,2414C 3664.15,2416.05 3664.82,2418.05 3666.5,2420C 3666.04,2420.41 3665.71,2420.91 3665.5,2421.5C 3669.31,2431.26 3672.64,2441.09 3675.5,2451C 3674.42,2452.73 3674.26,2454.56 3675,2456.5C 3677.17,2463.33 3679.33,2470.17 3681.5,2477C 3680.29,2480.03 3680.79,2482.86 3683,2485.5C 3684.91,2494.01 3686.41,2502.68 3687.5,2511.5C 3688.91,2515.09 3690.07,2518.76 3691,2522.5C 3691.57,2528.87 3692.4,2535.21 3693.5,2541.5C 3694.19,2542.03 3694.69,2542.69 3695,2543.5C 3699.66,2569.24 3703.66,2595.24 3707,2621.5C 3709.35,2667.61 3711.35,2713.61 3713,2759.5C 3713.67,3106.17 3713.67,3452.83 3713,3799.5C 3711.38,3868.84 3709.54,3937.51 3707.5,4005.5C 3689.75,4007.46 3672.09,4008.13 3654.5,4007.5C 3642.15,4007.95 3629.82,4008.62 3617.5,4009.5C 3567.8,4010.17 3518.13,4010.84 3468.5,4011.5C 3367.5,4010.17 3266.5,4010.17 3165.5,4011.5C 3118.82,4011.18 3072.15,4009.68 3025.5,4007C 3019.56,4005.84 3013.56,4005 3007.5,4004.5C 3004.36,4003.1 3001.36,4001.43 2998.5,3999.5C 2997.67,3994.53 2997.17,3989.53 2997,3984.5C 2996.67,3953.5 2996.33,3922.5 2996,3891.5C 2995.98,3878.68 2995.31,3866.01 2994,3853.5C 2994,3766.69 2993.33,3680.03 2992,3593.5C 2991.85,3348.16 2991.18,3102.83 2990,2857.5C 2989.92,2851.06 2989.25,2844.72 2988,2838.5C 2987.02,2805.52 2985.69,2772.52 2984,2739.5C 2981.06,2724.43 2979.06,2709.1 2978,2693.5C 2977.33,2692.83 2976.67,2692.17 2976,2691.5C 2974.12,2683.68 2972.79,2675.68 2972,2667.5C 2968.63,2662.07 2966.63,2656.07 2966,2649.5C 2962.63,2644.76 2960.47,2639.43 2959.5,2633.5C 2952.08,2616.69 2944.08,2600.02 2935.5,2583.5C 2921.52,2558.55 2904.86,2535.55 2885.5,2514.5C 2884.68,2513.61 2883.68,2513.28 2882.5,2513.5C 2882.72,2512.32 2882.39,2511.32 2881.5,2510.5C 2855.83,2484.7 2827.16,2464.03 2795.5,2448.5C 2761.66,2434.47 2726.33,2427.47 2689.5,2427.5C 2648.17,2426.33 2606.84,2426.17 2565.5,2427C 2565.83,2427.33 2566.17,2427.67 2566.5,2428C 2555.11,2428.2 2543.78,2429.03 2532.5,2430.5C 2521.9,2433.21 2510.9,2436.87 2499.5,2441.5C 2482.11,2449.53 2464.44,2458.36 2446.5,2468C 2383.85,2503.98 2334.85,2553.65 2299.5,2617C 2291.08,2632.64 2283.24,2648.48 2276,2664.5C 2275.02,2670.94 2273.02,2676.94 2270,2682.5C 2269.03,2689.99 2267.7,2697.32 2266,2704.5C 2263.49,2707.38 2262.99,2710.54 2264.5,2714C 2263.14,2719.5 2261.98,2725 2261,2730.5C 2260.67,2735.83 2260.33,2741.17 2260,2746.5C 2259.55,2748.52 2258.72,2750.35 2257.5,2752C 2257.96,2752.41 2258.29,2752.91 2258.5,2753.5C 2256.04,2790.48 2254.04,2827.48 2252.5,2864.5C 2252.95,2868.64 2253.28,2872.97 2253.5,2877.5C 2251.98,2892.45 2251.32,2907.45 2251.5,2922.5C 2251.51,2933.23 2252.18,2943.73 2253.5,2954C 2251.68,2974.94 2250.85,2996.1 2251,3017.5C 2251.18,3332.84 2249.85,3648.17 2247,3963.5C 2245.51,3976.63 2244.01,3989.8 2242.5,4003C 2242.64,4003.77 2242.98,4004.44 2243.5,4005C 2239.85,4005.77 2236.19,4006.44 2232.5,4007C 2204.62,4006.93 2176.62,4007.76 2148.5,4009.5C 1990.83,4010.67 1833.17,4010.83 1675.5,4010C 1661.98,4008.66 1648.32,4007.83 1634.5,4007.5C 1631.25,4007.52 1628.08,4007.85 1625,4008.5C 1599.56,4007.22 1574.06,4005.89 1548.5,4004.5C 1544.62,4004.24 1540.95,4003.24 1537.5,4001.5C 1535.68,4002.43 1534.34,4001.76 1533.5,3999.5C 1532.67,3982.01 1532,3964.51 1531.5,3947C 1531.53,3943.11 1531.87,3939.28 1532.5,3935.5C 1531.7,3878.54 1530.87,3821.54 1530,3764.5C 1529.77,3631.83 1528.93,3499.16 1527.5,3366.5C 1526.75,3033.42 1525.92,2700.42 1525,2367.5C 1523.93,2314.84 1523.27,2262.17 1523,2209.5C 1521.45,2176.95 1520.28,2144.45 1519.5,2112C 1520.13,2110.09 1520.46,2108.09 1520.5,2106C 1518.26,2067.67 1516.26,2029.34 1514.5,1991C 1514.83,1978.17 1515.17,1965.33 1515.5,1952.5C 1516.23,1950.81 1517.23,1949.31 1518.5,1948C 1523.58,1945.5 1528.91,1943.84 1534.5,1943C 1552.73,1942.1 1570.89,1941.27 1589,1940.5C 1772.07,1940.75 1955.57,1941.42 2139.5,1942.5C 2143.32,1988.9 2147.82,2035.23 2153,2081.5C 2153.97,2083.39 2154.64,2085.39 2155,2087.5C 2157.27,2113.71 2160.6,2139.71 2165,2165.5C 2166.04,2166.62 2166.71,2167.96 2167,2169.5C 2168.63,2181.28 2170.79,2193.61 2173.5,2206.5C 2176.22,2206.6 2178.89,2206.27 2181.5,2205.5C 2201.82,2189.82 2220.15,2172.15 2236.5,2152.5C 2265.22,2123.51 2295.89,2096.51 2328.5,2071.5C 2370.02,2040.49 2413.52,2012.49 2459,1987.5C 2460.84,1988.83 2461.34,1988.67 2460.5,1987C 2464.39,1985.8 2467.89,1983.97 2471,1981.5C 2472.84,1982.83 2473.34,1982.67 2472.5,1981C 2506.29,1967.84 2540.96,1953.18 2576.5,1937C 2590.47,1932.83 2605.14,1928.83 2620.5,1925C 2634.32,1921.72 2648.32,1919.05 2662.5,1917C 2663.5,1916.67 2664.5,1916.33 2665.5,1916C 2665.17,1915.67 2664.83,1915.33 2664.5,1915C 2687.17,1910.28 2709.84,1906.12 2732.5,1902.5C 2741.99,1900.58 2751.65,1898.91 2761.5,1897.5C 2775.41,1896.6 2789.24,1895.27 2803,1893.5C 2844.66,1893.52 2886.32,1893.52 2928,1893.5C 2930.37,1893.4 2932.54,1893.9 2934.5,1895C 2953.83,1895.49 2973.17,1895.99 2992.5,1896.5C 3008.45,1898.16 3024.45,1899.33 3040.5,1900C 3068.38,1905.07 3096.38,1910.07 3124.5,1915C 3125.17,1915.67 3125.83,1916.33 3126.5,1917C 3133.63,1917.7 3140.63,1919.04 3147.5,1921C 3146.37,1922.02 3146.7,1922.68 3148.5,1923C 3159.11,1925.05 3169.44,1927.72 3179.5,1931C 3182.31,1931.99 3184.97,1933.32 3187.5,1935C 3223.47,1945.82 3258.47,1959.15 3292.5,1975C 3292.17,1975.33 3291.83,1975.67 3291.5,1976C 3297.1,1977.05 3301.44,1979.22 3304.5,1982.5C 3305.09,1982.29 3305.59,1981.96 3306,1981.5C 3313.47,1985.15 3320.64,1989.15 3327.5,1993.5 Z"/></g>
<g><path style="opacity:0.004" fill="#fefffe" d="M 1929.5,624.5 C 1928.83,623.167 1928.83,623.167 1929.5,624.5 Z"/></g>
<g><path style="opacity:0.004" fill="#fefffe" d="M 1251.5,1107.5 C 1250.83,1106.17 1250.83,1106.17 1251.5,1107.5 Z"/></g>
<g><path style="opacity:0.004" fill="#fefffe" d="M 983.5,1486.5 C 982.833,1485.17 982.833,1485.17 983.5,1486.5 Z"/></g>
<g><path style="opacity:0.004" fill="#fefffe" d="M 439.5,3205.5 C 438.475,3205.1 438.308,3204.44 439,3203.5C 439.464,3204.09 439.631,3204.76 439.5,3205.5 Z"/></g>
<g><path style="opacity:0.004" fill="#fefffe" d="M 4838.5,3434.5 C 4839.83,3435.17 4839.83,3435.17 4838.5,3434.5 Z"/></g>
<g><path style="opacity:0.004" fill="#fefffe" d="M 315.5,3637.5 C 314.427,3636.75 314.26,3635.75 315,3634.5C 315.483,3635.45 315.649,3636.45 315.5,3637.5 Z"/></g>
</svg>
